# xmcd CD database file
#
# Track frame offsets:
#	150
#	23060
#	45695
#	70792
#	100003
#	116574
#	141539
#	172979
#	203313
#	230375
#	259691
#	281747
#
# Disc length: 4011 seconds
#
# Revision: 0
# Processed by: cddbd v1.4PL0 Copyright (c) Steve Scherf et al.
# Submitted via: CDex 1.50beta9
#
DISCID=a00fa90c
DTITLE=Cathy Morris - Welcome To My World
DYEAR=2001
DGENRE=Jazz
TTITLE0=Duck
TTITLE1=Smooth Talk
TTITLE2=Barcelona
TTITLE3=Blue
TTITLE4=Tiramisu (Joy Jam!)
TTITLE5=SWD
TTITLE6=Midnight Drive
TTITLE7=Red Hot
TTITLE8=Espana
TTITLE9=Think Fast
TTITLE10=Itasca
TTITLE11=Cathy's Calypso
EXTD=YEAR: 2001
EXTT0=
EXTT1=
EXTT2=
EXTT3=
EXTT4=
EXTT5=
EXTT6=
EXTT7=
EXTT8=
EXTT9=
EXTT10=
EXTT11=
PLAYORDER=
